<?xml version="1.0" encoding="UTF-8" standalone="no"?>
<!DOCTYPE svg PUBLIC "-//W3C//DTD SVG 1.1//EN"
 "http://www.w3.org/Graphics/SVG/1.1/DTD/svg11.dtd">
<!-- Generated by graphviz version 15.1.0 (0)
 -->
<!-- Title: WakePoint Pages: 1 -->
<svg width="1791pt" height="657pt"
 viewBox="0.00 0.00 1791.00 657.00" xmlns="http://www.w3.org/2000/svg" xmlns:xlink="http://www.w3.org/1999/xlink">
<g id="graph0" class="graph" transform="scale(1 1) rotate(0) translate(4 652.66)">
<title>WakePoint</title>
<!-- WakePoint -->
<g id="node1" class="node">
<title>WakePoint</title>
<polygon fill="#1f6feb" stroke="black" points="73.75,-307 4,-307 0,-303 0,-271 69.75,-271 73.75,-275 73.75,-307"/>
<polyline fill="none" stroke="black" points="69.75,-303 0,-303"/>
<polyline fill="none" stroke="black" points="69.75,-303 69.75,-271"/>
<polyline fill="none" stroke="black" points="69.75,-303 73.75,-307"/>
<text xml:space="preserve" text-anchor="middle" x="36.88" y="-285.3" font-family="Helvetica,sans-Serif" font-size="11.00" fill="white">WakePoint</text>
</g>
<!-- ekf&#45;sensor&#45;fusion -->
<g id="node2" class="node">
<title>ekf&#45;sensor&#45;fusion</title>
<path fill="#eef4ff" stroke="black" d="M601.5,-448C601.5,-448 395.75,-448 395.75,-448 389.75,-448 383.75,-442 383.75,-436 383.75,-436 383.75,-424 383.75,-424 383.75,-418 389.75,-412 395.75,-412 395.75,-412 601.5,-412 601.5,-412 607.5,-412 613.5,-418 613.5,-424 613.5,-424 613.5,-436 613.5,-436 613.5,-442 607.5,-448 601.5,-448"/>
<text xml:space="preserve" text-anchor="middle" x="498.62" y="-433.05" font-family="Helvetica,sans-Serif" font-size="11.00">Sensor Fusion &amp; Dead&#45;Reckoning (EKF)</text>
<text xml:space="preserve" text-anchor="middle" x="498.62" y="-419.55" font-family="Helvetica,sans-Serif" font-size="11.00">(8 files)</text>
</g>
<!-- WakePoint&#45;&gt;ekf&#45;sensor&#45;fusion -->
<g id="edge1" class="edge">
<title>WakePoint&#45;&gt;ekf&#45;sensor&#45;fusion</title>
<path fill="none" stroke="#8899bb" d="M44.16,-307.46C53.85,-332.77 75.04,-377.43 109.75,-398 188.3,-444.56 292.01,-450.88 372.43,-446.47"/>
<polygon fill="#8899bb" stroke="#8899bb" points="372.34,-449.98 382.1,-445.87 371.91,-443 372.34,-449.98"/>
</g>
<!-- live&#45;tracking&#45;runtime -->
<g id="node3" class="node">
<title>live&#45;tracking&#45;runtime</title>
<path fill="#eef4ff" stroke="black" d="M1310.25,-334C1310.25,-334 1076,-334 1076,-334 1070,-334 1064,-328 1064,-322 1064,-322 1064,-310 1064,-310 1064,-304 1070,-298 1076,-298 1076,-298 1310.25,-298 1310.25,-298 1316.25,-298 1322.25,-304 1322.25,-310 1322.25,-310 1322.25,-322 1322.25,-322 1322.25,-328 1316.25,-334 1310.25,-334"/>
<text xml:space="preserve" text-anchor="middle" x="1193.12" y="-319.05" font-family="Helvetica,sans-Serif" font-size="11.00">Live Tracking Runtime (Background Service)</text>
<text xml:space="preserve" text-anchor="middle" x="1193.12" y="-305.55" font-family="Helvetica,sans-Serif" font-size="11.00">(8 files)</text>
</g>
<!-- WakePoint&#45;&gt;live&#45;tracking&#45;runtime -->
<g id="edge2" class="edge">
<title>WakePoint&#45;&gt;live&#45;tracking&#45;runtime</title>
<path fill="none" stroke="#8899bb" d="M74.09,-272.51C85.28,-268.21 97.82,-264.17 109.75,-262 213.83,-243.1 242,-259.67 347.75,-262 650.3,-268.67 726.73,-263.4 1028,-292 1039.96,-293.14 1052.39,-294.54 1064.8,-296.09"/>
<polygon fill="#8899bb" stroke="#8899bb" points="1064.32,-299.56 1074.69,-297.36 1065.22,-292.62 1064.32,-299.56"/>
</g>
<!-- wakeup&#45;alarm&#45;engine -->
<g id="node4" class="node">
<title>wakeup&#45;alarm&#45;engine</title>
<path fill="#eef4ff" stroke="black" d="M1532.5,-204C1532.5,-204 1415.25,-204 1415.25,-204 1409.25,-204 1403.25,-198 1403.25,-192 1403.25,-192 1403.25,-180 1403.25,-180 1403.25,-174 1409.25,-168 1415.25,-168 1415.25,-168 1532.5,-168 1532.5,-168 1538.5,-168 1544.5,-174 1544.5,-180 1544.5,-180 1544.5,-192 1544.5,-192 1544.5,-198 1538.5,-204 1532.5,-204"/>
<text xml:space="preserve" text-anchor="middle" x="1473.88" y="-189.05" font-family="Helvetica,sans-Serif" font-size="11.00">Wake&#45;Up Alarm Engine</text>
<text xml:space="preserve" text-anchor="middle" x="1473.88" y="-175.55" font-family="Helvetica,sans-Serif" font-size="11.00">(5 files)</text>
</g>
<!-- WakePoint&#45;&gt;wakeup&#45;alarm&#45;engine -->
<g id="edge3" class="edge">
<title>WakePoint&#45;&gt;wakeup&#45;alarm&#45;engine</title>
<path fill="none" stroke="#8899bb" d="M38.38,-270.54C40.57,-230.47 51.92,-135.64 109.75,-92 178.73,-39.94 411.21,-64 497.62,-64 497.62,-64 497.62,-64 953.12,-64 1125.42,-64 1321.55,-128.33 1416.05,-163.56"/>
<polygon fill="#8899bb" stroke="#8899bb" points="1414.78,-166.82 1425.37,-167.07 1417.24,-160.27 1414.78,-166.82"/>
</g>
<!-- routing&#45;route&#45;sessions -->
<g id="node5" class="node">
<title>routing&#45;route&#45;sessions</title>
<path fill="#eef4ff" stroke="black" d="M1771.25,-361C1771.25,-361 1637.5,-361 1637.5,-361 1631.5,-361 1625.5,-355 1625.5,-349 1625.5,-349 1625.5,-337 1625.5,-337 1625.5,-331 1631.5,-325 1637.5,-325 1637.5,-325 1771.25,-325 1771.25,-325 1777.25,-325 1783.25,-331 1783.25,-337 1783.25,-337 1783.25,-349 1783.25,-349 1783.25,-355 1777.25,-361 1771.25,-361"/>
<text xml:space="preserve" text-anchor="middle" x="1704.38" y="-346.05" font-family="Helvetica,sans-Serif" font-size="11.00">Routing &amp; Route Sessions</text>
<text xml:space="preserve" text-anchor="middle" x="1704.38" y="-332.55" font-family="Helvetica,sans-Serif" font-size="11.00">(10 files)</text>
</g>
<!-- WakePoint&#45;&gt;routing&#45;route&#45;sessions -->
<g id="edge4" class="edge">
<title>WakePoint&#45;&gt;routing&#45;route&#45;sessions</title>
<path fill="none" stroke="#8899bb" d="M37.95,-307.44C39.13,-351.81 48.35,-465.55 109.75,-529 235.14,-658.59 317.31,-648 497.62,-648 497.62,-648 497.62,-648 1194.12,-648 1410.01,-648 1613.58,-443.77 1680.43,-369.55"/>
<polygon fill="#8899bb" stroke="#8899bb" points="1682.85,-372.09 1686.89,-362.3 1677.62,-367.44 1682.85,-372.09"/>
</g>
<!-- platform&#45;connectivity&#45;services -->
<g id="node6" class="node">
<title>platform&#45;connectivity&#45;services</title>
<path fill="#eef4ff" stroke="black" d="M1577.5,-389C1577.5,-389 1370.25,-389 1370.25,-389 1364.25,-389 1358.25,-383 1358.25,-377 1358.25,-377 1358.25,-365 1358.25,-365 1358.25,-359 1364.25,-353 1370.25,-353 1370.25,-353 1577.5,-353 1577.5,-353 1583.5,-353 1589.5,-359 1589.5,-365 1589.5,-365 1589.5,-377 1589.5,-377 1589.5,-383 1583.5,-389 1577.5,-389"/>
<text xml:space="preserve" text-anchor="middle" x="1473.88" y="-374.05" font-family="Helvetica,sans-Serif" font-size="11.00">Platform, Connectivity &amp; Sensor Bridge</text>
<text xml:space="preserve" text-anchor="middle" x="1473.88" y="-360.55" font-family="Helvetica,sans-Serif" font-size="11.00">(10 files)</text>
</g>
<!-- WakePoint&#45;&gt;platform&#45;connectivity&#45;services -->
<g id="edge5" class="edge">
<title>WakePoint&#45;&gt;platform&#45;connectivity&#45;services</title>
<path fill="none" stroke="#8899bb" d="M42.36,-307.36C50.71,-338 71.37,-399.85 109.75,-437 245.38,-568.28 308.87,-610 497.62,-610 497.62,-610 497.62,-610 745.88,-610 1019.38,-610 1323.12,-455.45 1431.61,-394.91"/>
<polygon fill="#8899bb" stroke="#8899bb" points="1433.17,-398.05 1440.17,-390.1 1429.74,-391.95 1433.17,-398.05"/>
</g>
<!-- user&#45;facing&#45;screens -->
<g id="node7" class="node">
<title>user&#45;facing&#45;screens</title>
<path fill="#eef4ff" stroke="black" d="M1016,-204C1016,-204 888.25,-204 888.25,-204 882.25,-204 876.25,-198 876.25,-192 876.25,-192 876.25,-180 876.25,-180 876.25,-174 882.25,-168 888.25,-168 888.25,-168 1016,-168 1016,-168 1022,-168 1028,-174 1028,-180 1028,-180 1028,-192 1028,-192 1028,-198 1022,-204 1016,-204"/>
<text xml:space="preserve" text-anchor="middle" x="952.12" y="-189.05" font-family="Helvetica,sans-Serif" font-size="11.00">User&#45;Facing App Screens</text>
<text xml:space="preserve" text-anchor="middle" x="952.12" y="-175.55" font-family="Helvetica,sans-Serif" font-size="11.00">(7 files)</text>
</g>
<!-- WakePoint&#45;&gt;user&#45;facing&#45;screens -->
<g id="edge6" class="edge">
<title>WakePoint&#45;&gt;user&#45;facing&#45;screens</title>
<path fill="none" stroke="#8899bb" d="M40.57,-270.68C46.46,-238.06 63.84,-170.66 109.75,-142 247.46,-56.04 680.8,-111.52 840.25,-142 862.05,-146.17 885.02,-154.55 904.37,-162.9"/>
<polygon fill="#8899bb" stroke="#8899bb" points="902.77,-166.02 913.33,-166.89 905.62,-159.62 902.77,-166.02"/>
</g>
<!-- app&#45;foundation&#45;config -->
<g id="node8" class="node">
<title>app&#45;foundation&#45;config</title>
<path fill="#eef4ff" stroke="black" d="M828.25,-374C828.25,-374 661.5,-374 661.5,-374 655.5,-374 649.5,-368 649.5,-362 649.5,-362 649.5,-350 649.5,-350 649.5,-344 655.5,-338 661.5,-338 661.5,-338 828.25,-338 828.25,-338 834.25,-338 840.25,-344 840.25,-350 840.25,-350 840.25,-362 840.25,-362 840.25,-368 834.25,-374 828.25,-374"/>
<text xml:space="preserve" text-anchor="middle" x="744.88" y="-359.05" font-family="Helvetica,sans-Serif" font-size="11.00">App Foundation &amp; Configuration</text>
<text xml:space="preserve" text-anchor="middle" x="744.88" y="-345.55" font-family="Helvetica,sans-Serif" font-size="11.00">(11 files)</text>
</g>
<!-- WakePoint&#45;&gt;app&#45;foundation&#45;config -->
<g id="edge7" class="edge">
<title>WakePoint&#45;&gt;app&#45;foundation&#45;config</title>
<path fill="none" stroke="#8899bb" d="M73.9,-304.49C85.2,-308.81 97.83,-313.11 109.75,-316 291.47,-360.05 510.57,-363.3 637.87,-360.47"/>
<polygon fill="#8899bb" stroke="#8899bb" points="637.71,-363.98 647.62,-360.24 637.54,-356.98 637.71,-363.98"/>
</g>
<!-- backend&#45;api&#45;gateway -->
<g id="node9" class="node">
<title>backend&#45;api&#45;gateway</title>
<path fill="#eef4ff" stroke="black" d="M284.75,-36C284.75,-36 172.75,-36 172.75,-36 166.75,-36 160.75,-30 160.75,-24 160.75,-24 160.75,-12 160.75,-12 160.75,-6 166.75,0 172.75,0 172.75,0 284.75,0 284.75,0 290.75,0 296.75,-6 296.75,-12 296.75,-12 296.75,-24 296.75,-24 296.75,-30 290.75,-36 284.75,-36"/>
<text xml:space="preserve" text-anchor="middle" x="228.75" y="-21.05" font-family="Helvetica,sans-Serif" font-size="11.00">Backend API Gateway</text>
<text xml:space="preserve" text-anchor="middle" x="228.75" y="-7.55" font-family="Helvetica,sans-Serif" font-size="11.00">(8 files)</text>
</g>
<!-- WakePoint&#45;&gt;backend&#45;api&#45;gateway -->
<g id="edge8" class="edge">
<title>WakePoint&#45;&gt;backend&#45;api&#45;gateway</title>
<path fill="none" stroke="#8899bb" d="M37.73,-270.73C38.41,-226.25 46.56,-111.49 109.75,-50 120.77,-39.28 134.99,-32.06 149.73,-27.23"/>
<polygon fill="#8899bb" stroke="#8899bb" points="150.43,-30.67 159.06,-24.53 148.49,-23.95 150.43,-30.67"/>
</g>
<!-- quality&#45;simulation&#45;testing -->
<g id="node10" class="node">
<title>quality&#45;simulation&#45;testing</title>
<path fill="#eef4ff" stroke="black" d="M335.75,-307C335.75,-307 121.75,-307 121.75,-307 115.75,-307 109.75,-301 109.75,-295 109.75,-295 109.75,-283 109.75,-283 109.75,-277 115.75,-271 121.75,-271 121.75,-271 335.75,-271 335.75,-271 341.75,-271 347.75,-277 347.75,-283 347.75,-283 347.75,-295 347.75,-295 347.75,-301 341.75,-307 335.75,-307"/>
<text xml:space="preserve" text-anchor="middle" x="228.75" y="-292.05" font-family="Helvetica,sans-Serif" font-size="11.00">Quality, Simulation &amp; Test Infrastructure</text>
<text xml:space="preserve" text-anchor="middle" x="228.75" y="-278.55" font-family="Helvetica,sans-Serif" font-size="11.00">(12 files)</text>
</g>
<!-- WakePoint&#45;&gt;quality&#45;simulation&#45;testing -->
<g id="edge9" class="edge">
<title>WakePoint&#45;&gt;quality&#45;simulation&#45;testing</title>
<path fill="none" stroke="#8899bb" d="M74.04,-289C81.37,-289 89.47,-289 98.01,-289"/>
<polygon fill="#8899bb" stroke="#8899bb" points="97.94,-292.5 107.94,-289 97.94,-285.5 97.94,-292.5"/>
</g>
<!-- ekf&#45;sensor&#45;fusion&#45;&gt;app&#45;foundation&#45;config -->
<g id="edge13" class="edge">
<title>ekf&#45;sensor&#45;fusion&#45;&gt;app&#45;foundation&#45;config</title>
<path fill="none" stroke="#cc7722" d="M566.89,-411.55C582.24,-407.22 598.46,-402.53 613.5,-398 634.34,-391.72 656.95,-384.56 677.4,-377.95"/>
<polygon fill="#cc7722" stroke="#cc7722" points="678.32,-381.33 686.75,-374.92 676.16,-374.67 678.32,-381.33"/>
</g>
<!-- live&#45;tracking&#45;runtime&#45;&gt;ekf&#45;sensor&#45;fusion -->
<g id="edge15" class="edge">
<title>live&#45;tracking&#45;runtime&#45;&gt;ekf&#45;sensor&#45;fusion</title>
<path fill="none" stroke="#cc7722" stroke-width="2.58" d="M1132.58,-334.46C1101.63,-343.5 1063.05,-353.94 1028,-361 892.33,-388.32 734.78,-407.28 627.26,-418.31"/>
<polygon fill="#cc7722" stroke="#cc7722" stroke-width="2.58" points="627.23,-414.8 617.63,-419.29 627.93,-421.76 627.23,-414.8"/>
</g>
<!-- live&#45;tracking&#45;runtime&#45;&gt;wakeup&#45;alarm&#45;engine -->
<g id="edge18" class="edge">
<title>live&#45;tracking&#45;runtime&#45;&gt;wakeup&#45;alarm&#45;engine</title>
<path fill="none" stroke="#cc7722" stroke-width="4.17" d="M1224.22,-297.58C1267.8,-274.69 1349.58,-236.07 1407.43,-210.7"/>
<polygon fill="#cc7722" stroke="#cc7722" stroke-width="4.17" points="1408.66,-214.14 1416.38,-206.81 1405.75,-207.45 1408.66,-214.14"/>
</g>
<!-- live&#45;tracking&#45;runtime&#45;&gt;routing&#45;route&#45;sessions -->
<g id="edge17" class="edge">
<title>live&#45;tracking&#45;runtime&#45;&gt;routing&#45;route&#45;sessions</title>
<path fill="none" stroke="#cc7722" stroke-width="5" d="M1322.63,-316.86C1411.81,-320.36 1528.59,-326.74 1609.19,-332.63"/>
<polygon fill="#cc7722" stroke="#cc7722" stroke-width="5" points="1608.79,-336.98 1619.09,-333.37 1609.45,-328.26 1608.79,-336.98"/>
</g>
<!-- live&#45;tracking&#45;runtime&#45;&gt;platform&#45;connectivity&#45;services -->
<g id="edge16" class="edge">
<title>live&#45;tracking&#45;runtime&#45;&gt;platform&#45;connectivity&#45;services</title>
<path fill="none" stroke="#cc7722" stroke-width="2.58" d="M1287.72,-334.47C1312.91,-339.44 1340.34,-344.85 1366.18,-349.95"/>
<polygon fill="#cc7722" stroke="#cc7722" stroke-width="2.58" points="1365.21,-353.32 1375.7,-351.83 1366.56,-346.46 1365.21,-353.32"/>
</g>
<!-- live&#45;tracking&#45;runtime&#45;&gt;app&#45;foundation&#45;config -->
<g id="edge14" class="edge">
<title>live&#45;tracking&#45;runtime&#45;&gt;app&#45;foundation&#45;config</title>
<path fill="none" stroke="#cc7722" stroke-width="3" d="M1063.76,-333.68C997.69,-340.45 918,-347.5 854.93,-352.12"/>
<polygon fill="#cc7722" stroke="#cc7722" stroke-width="3" points="854.77,-348.62 845.04,-352.83 855.27,-355.6 854.77,-348.62"/>
</g>
<!-- wakeup&#45;alarm&#45;engine&#45;&gt;live&#45;tracking&#45;runtime -->
<g id="edge37" class="edge">
<title>wakeup&#45;alarm&#45;engine&#45;&gt;live&#45;tracking&#45;runtime</title>
<path fill="none" stroke="#cc7722" stroke-width="2" d="M1442.71,-204.46C1398.43,-227.71 1314.8,-267.16 1256.84,-292.5"/>
<polygon fill="#cc7722" stroke="#cc7722" stroke-width="2" points="1255.81,-289.13 1248.03,-296.32 1258.6,-295.55 1255.81,-289.13"/>
</g>
<!-- wakeup&#45;alarm&#45;engine&#45;&gt;routing&#45;route&#45;sessions -->
<g id="edge38" class="edge">
<title>wakeup&#45;alarm&#45;engine&#45;&gt;routing&#45;route&#45;sessions</title>
<path fill="none" stroke="#cc7722" stroke-width="2" d="M1544.76,-198.82C1560.19,-203.44 1575.95,-209.66 1589.5,-218 1629.66,-242.74 1664.27,-285.66 1684.47,-314.2"/>
<polygon fill="#cc7722" stroke="#cc7722" stroke-width="2" points="1681.45,-315.99 1690.01,-322.24 1687.22,-312.02 1681.45,-315.99"/>
</g>
<!-- routing&#45;route&#45;sessions&#45;&gt;ekf&#45;sensor&#45;fusion -->
<g id="edge29" class="edge">
<title>routing&#45;route&#45;sessions&#45;&gt;ekf&#45;sensor&#45;fusion</title>
<path fill="none" stroke="#cc7722" d="M1687.91,-361.39C1667.87,-383.67 1630.58,-420.06 1589.5,-435 1578.89,-438.86 1058.37,-446.26 840.25,-448 755.47,-448.68 734.13,-453.06 649.5,-448 641.5,-447.52 633.27,-446.9 624.98,-446.18"/>
<polygon fill="#cc7722" stroke="#cc7722" points="625.44,-442.7 615.16,-445.27 624.79,-449.67 625.44,-442.7"/>
</g>
<!-- routing&#45;route&#45;sessions&#45;&gt;live&#45;tracking&#45;runtime -->
<g id="edge30" class="edge">
<title>routing&#45;route&#45;sessions&#45;&gt;live&#45;tracking&#45;runtime</title>
<path fill="none" stroke="#cc7722" stroke-width="2" d="M1625.31,-343.89C1548.35,-341.65 1429.01,-335.69 1335.37,-329.6"/>
<polygon fill="#cc7722" stroke="#cc7722" stroke-width="2" points="1335.86,-326.13 1325.65,-328.96 1335.4,-333.11 1335.86,-326.13"/>
</g>
<!-- routing&#45;route&#45;sessions&#45;&gt;platform&#45;connectivity&#45;services -->
<g id="edge31" class="edge">
<title>routing&#45;route&#45;sessions&#45;&gt;platform&#45;connectivity&#45;services</title>
<path fill="none" stroke="#cc7722" d="M1625.24,-359.02C1617.37,-360.12 1609.24,-361.21 1601.03,-362.26"/>
<polygon fill="#cc7722" stroke="#cc7722" points="1600.78,-358.76 1591.3,-363.48 1601.65,-365.71 1600.78,-358.76"/>
</g>
<!-- routing&#45;route&#45;sessions&#45;&gt;app&#45;foundation&#45;config -->
<g id="edge28" class="edge">
<title>routing&#45;route&#45;sessions&#45;&gt;app&#45;foundation&#45;config</title>
<path fill="none" stroke="#cc7722" stroke-width="2" d="M1674.23,-361.36C1651.97,-374.3 1620.01,-390.6 1589.5,-398 1281.43,-472.76 1188.16,-461.68 876.25,-405 848.8,-400.01 819.61,-389.57 795.82,-379.59"/>
<polygon fill="#cc7722" stroke="#cc7722" stroke-width="2" points="797.26,-376.4 786.69,-375.66 794.49,-382.83 797.26,-376.4"/>
</g>
<!-- platform&#45;connectivity&#45;services&#45;&gt;ekf&#45;sensor&#45;fusion -->
<g id="edge20" class="edge">
<title>platform&#45;connectivity&#45;services&#45;&gt;ekf&#45;sensor&#45;fusion</title>
<path fill="none" stroke="#cc7722" stroke-width="2.58" d="M1404,-389.46C1378.51,-395.52 1349.24,-401.58 1322.25,-405 1078.12,-435.97 790.14,-436.59 627.81,-433.67"/>
<polygon fill="#cc7722" stroke="#cc7722" stroke-width="2.58" points="627.91,-430.17 617.84,-433.48 627.77,-437.17 627.91,-430.17"/>
</g>
<!-- platform&#45;connectivity&#45;services&#45;&gt;routing&#45;route&#45;sessions -->
<g id="edge21" class="edge">
<title>platform&#45;connectivity&#45;services&#45;&gt;routing&#45;route&#45;sessions</title>
<path fill="none" stroke="#cc7722" d="M1571.12,-352.53C1585.36,-350.67 1599.99,-348.9 1614.08,-347.34"/>
<polygon fill="#cc7722" stroke="#cc7722" points="1614.18,-350.85 1623.75,-346.29 1613.43,-343.89 1614.18,-350.85"/>
</g>
<!-- platform&#45;connectivity&#45;services&#45;&gt;app&#45;foundation&#45;config -->
<g id="edge19" class="edge">
<title>platform&#45;connectivity&#45;services&#45;&gt;app&#45;foundation&#45;config</title>
<path fill="none" stroke="#cc7722" stroke-width="2.58" d="M1357.76,-385.85C1345.77,-386.35 1333.77,-386.73 1322.25,-387 1124.08,-391.6 1073.78,-403.55 876.25,-387 854.11,-385.14 830.07,-381.55 808.74,-377.3"/>
<polygon fill="#cc7722" stroke="#cc7722" stroke-width="2.58" points="809.48,-373.88 798.98,-375.24 808.04,-380.73 809.48,-373.88"/>
</g>
<!-- user&#45;facing&#45;screens&#45;&gt;live&#45;tracking&#45;runtime -->
<g id="edge33" class="edge">
<title>user&#45;facing&#45;screens&#45;&gt;live&#45;tracking&#45;runtime</title>
<path fill="none" stroke="#cc7722" stroke-width="4" d="M1008.09,-204.33C1015.26,-208.15 1022.14,-212.68 1028,-218 1052.73,-240.47 1037.56,-263.56 1064,-284 1066.84,-286.19 1069.81,-288.24 1072.88,-290.14"/>
<polygon fill="#cc7722" stroke="#cc7722" stroke-width="4" points="1071.13,-293.18 1081.6,-294.8 1074.43,-287 1071.13,-293.18"/>
</g>
<!-- user&#45;facing&#45;screens&#45;&gt;wakeup&#45;alarm&#45;engine -->
<g id="edge36" class="edge">
<title>user&#45;facing&#45;screens&#45;&gt;wakeup&#45;alarm&#45;engine</title>
<path fill="none" stroke="#cc7722" stroke-width="3" d="M1028.42,-186C1124.05,-186 1288.6,-186 1388.41,-186"/>
<polygon fill="#cc7722" stroke="#cc7722" stroke-width="3" points="1388.41,-189.5 1398.41,-186 1388.41,-182.5 1388.41,-189.5"/>
</g>
<!-- user&#45;facing&#45;screens&#45;&gt;routing&#45;route&#45;sessions -->
<g id="edge35" class="edge">
<title>user&#45;facing&#45;screens&#45;&gt;routing&#45;route&#45;sessions</title>
<path fill="none" stroke="#cc7722" stroke-width="3.81" d="M1028.42,-196.26C1103.27,-206.92 1221.18,-224.97 1322.25,-246 1427.22,-267.84 1546.81,-299.39 1623.6,-320.51"/>
<polygon fill="#cc7722" stroke="#cc7722" stroke-width="3.81" points="1622.24,-323.77 1632.81,-323.06 1624.1,-317.02 1622.24,-323.77"/>
</g>
<!-- user&#45;facing&#45;screens&#45;&gt;platform&#45;connectivity&#45;services -->
<g id="edge34" class="edge">
<title>user&#45;facing&#45;screens&#45;&gt;platform&#45;connectivity&#45;services</title>
<path fill="none" stroke="#cc7722" stroke-width="3.32" d="M1001.16,-204.35C1010.28,-208.44 1019.6,-213.05 1028,-218 1045.46,-228.29 1045.43,-237.86 1064,-246 1170.57,-292.7 1212.24,-251.1 1322.25,-289 1362.04,-302.71 1403.81,-326.28 1433.25,-344.64"/>
<polygon fill="#cc7722" stroke="#cc7722" stroke-width="3.32" points="1431.29,-347.55 1441.61,-349.96 1435.05,-341.64 1431.29,-347.55"/>
</g>
<!-- user&#45;facing&#45;screens&#45;&gt;app&#45;foundation&#45;config -->
<g id="edge32" class="edge">
<title>user&#45;facing&#45;screens&#45;&gt;app&#45;foundation&#45;config</title>
<path fill="none" stroke="#cc7722" stroke-width="2" d="M933.86,-204.26C901.04,-234.6 828.94,-294.79 784.19,-329.67"/>
<polygon fill="#cc7722" stroke="#cc7722" stroke-width="2" points="782.16,-326.81 776.38,-335.69 786.44,-332.35 782.16,-326.81"/>
</g>
<!-- app&#45;foundation&#45;config&#45;&gt;live&#45;tracking&#45;runtime -->
<g id="edge10" class="edge">
<title>app&#45;foundation&#45;config&#45;&gt;live&#45;tracking&#45;runtime</title>
<path fill="none" stroke="#cc7722" d="M840.51,-341.88C902.07,-335.16 983.42,-327.64 1052.37,-322.21"/>
<polygon fill="#cc7722" stroke="#cc7722" points="1052.55,-325.71 1062.25,-321.45 1052.01,-318.73 1052.55,-325.71"/>
</g>
<!-- app&#45;foundation&#45;config&#45;&gt;platform&#45;connectivity&#45;services -->
<g id="edge11" class="edge">
<title>app&#45;foundation&#45;config&#45;&gt;platform&#45;connectivity&#45;services</title>
<path fill="none" stroke="#cc7722" d="M840.7,-364.97C852.63,-366.59 864.7,-368.03 876.25,-369 1073.78,-385.55 1124.08,-373.6 1322.25,-369 1330.17,-368.82 1338.32,-368.58 1346.53,-368.32"/>
<polygon fill="#cc7722" stroke="#cc7722" points="1346.37,-371.82 1356.25,-368 1346.14,-364.83 1346.37,-371.82"/>
</g>
<!-- app&#45;foundation&#45;config&#45;&gt;user&#45;facing&#45;screens -->
<g id="edge12" class="edge">
<title>app&#45;foundation&#45;config&#45;&gt;user&#45;facing&#45;screens</title>
<path fill="none" stroke="#cc7722" stroke-width="3.32" d="M763.37,-337.53C795.9,-307.49 866.4,-248.6 911.15,-213.63"/>
<polygon fill="#cc7722" stroke="#cc7722" stroke-width="3.32" points="913.29,-216.4 919.06,-207.52 909.01,-210.86 913.29,-216.4"/>
</g>
<!-- quality&#45;simulation&#45;testing&#45;&gt;ekf&#45;sensor&#45;fusion -->
<g id="edge23" class="edge">
<title>quality&#45;simulation&#45;testing&#45;&gt;ekf&#45;sensor&#45;fusion</title>
<path fill="none" stroke="#cc7722" stroke-width="3.32" d="M264.77,-307.43C312,-332.29 396.3,-376.66 449.46,-404.65"/>
<polygon fill="#cc7722" stroke="#cc7722" stroke-width="3.32" points="447.67,-407.66 458.15,-409.22 450.93,-401.47 447.67,-407.66"/>
</g>
<!-- quality&#45;simulation&#45;testing&#45;&gt;live&#45;tracking&#45;runtime -->
<g id="edge24" class="edge">
<title>quality&#45;simulation&#45;testing&#45;&gt;live&#45;tracking&#45;runtime</title>
<path fill="none" stroke="#cc7722" stroke-width="3" d="M347.97,-288.42C470.98,-288.23 669.17,-289.06 840.25,-295 909.05,-297.39 985.33,-301.73 1049.23,-305.85"/>
<polygon fill="#cc7722" stroke="#cc7722" stroke-width="3" points="1048.77,-309.33 1058.98,-306.49 1049.23,-302.35 1048.77,-309.33"/>
</g>
<!-- quality&#45;simulation&#45;testing&#45;&gt;wakeup&#45;alarm&#45;engine -->
<g id="edge27" class="edge">
<title>quality&#45;simulation&#45;testing&#45;&gt;wakeup&#45;alarm&#45;engine</title>
<path fill="none" stroke="#cc7722" stroke-width="2" d="M347.95,-284.24C501.46,-276.21 759.34,-255.9 840.25,-208 863.5,-194.23 852.14,-171.2 876.25,-159 936.42,-128.54 960.59,-156.96 1028,-159 1154.42,-162.83 1300.78,-172.78 1390.07,-179.47"/>
<polygon fill="#cc7722" stroke="#cc7722" stroke-width="2" points="1389.56,-182.94 1399.8,-180.2 1390.09,-175.96 1389.56,-182.94"/>
</g>
<!-- quality&#45;simulation&#45;testing&#45;&gt;routing&#45;route&#45;sessions -->
<g id="edge26" class="edge">
<title>quality&#45;simulation&#45;testing&#45;&gt;routing&#45;route&#45;sessions</title>
<path fill="none" stroke="#cc7722" d="M330.89,-270.56C336.6,-269.39 342.25,-268.2 347.75,-267 363.86,-263.49 367.73,-261.91 383.75,-258 602.33,-204.72 652.8,-167.18 876.25,-141 1078.98,-117.25 1482.7,-97.24 1589.5,-159 1648.48,-193.11 1681.05,-271.25 1695.02,-313.9"/>
<polygon fill="#cc7722" stroke="#cc7722" points="1691.62,-314.74 1697.95,-323.24 1698.3,-312.65 1691.62,-314.74"/>
</g>
<!-- quality&#45;simulation&#45;testing&#45;&gt;platform&#45;connectivity&#45;services -->
<g id="edge25" class="edge">
<title>quality&#45;simulation&#45;testing&#45;&gt;platform&#45;connectivity&#45;services</title>
<path fill="none" stroke="#cc7722" stroke-width="2.58" d="M348.21,-296.73C471.22,-304.77 669.21,-317.72 840.25,-329 1014.84,-340.52 1216.52,-353.92 1344.34,-362.43"/>
<polygon fill="#cc7722" stroke="#cc7722" stroke-width="2.58" points="1343.91,-365.91 1354.12,-363.08 1344.37,-358.93 1343.91,-365.91"/>
</g>
<!-- quality&#45;simulation&#45;testing&#45;&gt;app&#45;foundation&#45;config -->
<g id="edge22" class="edge">
<title>quality&#45;simulation&#45;testing&#45;&gt;app&#45;foundation&#45;config</title>
<path fill="none" stroke="#cc7722" stroke-width="3.32" d="M307.37,-307.48C331.71,-312.78 358.75,-318.16 383.75,-322 467.34,-334.86 562.64,-343.6 634.2,-348.99"/>
<polygon fill="#cc7722" stroke="#cc7722" stroke-width="3.32" points="633.86,-352.48 644.09,-349.72 634.38,-345.49 633.86,-352.48"/>
</g>
</g>
</svg>
